<svg width="80" height="80" viewBox="0 0 80 80" fill="none" xmlns="http://www.w3.org/2000/svg">
<rect width="80" height="80" rx="25" fill="#52C7F4"/>
<path d="M32.4823 53.979C32.0941 53.979 31.7793 54.2944 31.7793 54.6835V57.6954C31.7793 58.0845 32.0941 58.3999 32.4823 58.3999C32.8705 58.3999 33.1853 58.0845 33.1853 57.6954V54.6835C33.1853 54.2944 32.8705 53.979 32.4823 53.979Z" fill="white"/>
<path d="M47.5096 53.979C47.1214 53.979 46.8066 54.2944 46.8066 54.6835V57.6954C46.8066 58.0845 47.1214 58.3999 47.5096 58.3999C47.8979 58.3999 48.2126 58.0845 48.2126 57.6954V54.6835C48.2126 54.2944 47.8979 53.979 47.5096 53.979Z" fill="white"/>
<path d="M26.7854 38.9934C25.1529 38.1754 22.0922 38.166 21.9627 38.166C21.5745 38.166 21.2599 38.4813 21.2598 38.8703C21.2597 39.2593 21.5742 39.5748 21.9625 39.575C22.7534 39.5755 25.0485 39.6984 26.1566 40.2536C26.2576 40.3042 26.3648 40.3281 26.4704 40.3281C26.7283 40.3281 26.9766 40.1853 27.0998 39.9386C27.2734 39.5905 27.1327 39.1674 26.7854 38.9934Z" fill="white"/>
<path d="M19.705 52.4731C19.3167 52.4731 19.002 52.7886 19.002 53.1777V57.6956C19.002 58.0847 19.3167 58.4001 19.705 58.4001C20.0932 58.4001 20.408 58.0847 20.408 57.6956V53.1777C20.408 52.7887 20.0933 52.4731 19.705 52.4731Z" fill="white"/>
<path d="M62.3569 49.8416L59.5101 48.4153C59.4936 48.4071 59.4832 48.3903 59.4832 48.3719L59.4834 46.938C60.6521 46.1316 61.4793 44.8567 61.6863 43.3605C62.2119 42.4502 62.4889 41.422 62.4889 40.3765C62.4889 38.4269 61.5521 36.6927 60.1063 35.6013C60.191 35.3185 60.2348 35.0267 60.2348 34.7291C60.2348 32.8874 58.5711 31.389 56.5263 31.389C54.4815 31.389 52.8178 32.8874 52.8178 34.7291C52.8178 35.0271 52.8612 35.319 52.9459 35.6016C52.0838 36.2524 51.4041 37.1324 50.9948 38.1497C50.8206 36.4336 50.6391 34.4049 50.465 32.0417C50.2354 28.9236 49.1164 26.2904 47.2292 24.427C45.3563 22.5776 42.855 21.6001 39.9958 21.6001C37.1367 21.6001 34.6354 22.5776 32.7627 24.4269C30.8754 26.2904 29.7565 28.9236 29.5268 32.0416C29.4658 32.8694 29.4039 33.6541 29.3418 34.4009H22.7141C20.2549 34.4009 18.2541 36.406 18.2541 38.8704V38.9124C18.2541 39.4864 18.3895 40.0612 18.6456 40.5745L19.0055 41.2958V42.4461C19.0055 44.269 19.9019 45.9046 21.2596 46.889V47.9065C21.2596 48.037 21.1721 48.1531 21.047 48.1889L18.1447 49.02C16.8819 49.3814 16 50.5532 16 51.8693V57.6952C16 58.0843 16.3148 58.3997 16.703 58.3997C17.0912 58.3997 17.406 58.0843 17.406 57.6952V51.8693C17.406 51.1789 17.8687 50.5643 18.531 50.3746L21.4334 49.5436C21.5381 49.5136 21.6375 49.4729 21.7322 49.4247L23.5138 51.2101V57.6952C23.5138 58.0843 23.8285 58.3997 24.2168 58.3997C24.605 58.3997 24.9198 58.0843 24.9198 57.6952V51.2101L26.7139 49.4122C26.9536 49.5301 27.1926 49.5986 27.3676 49.6488L28.0803 49.8528C27.1146 50.541 26.5194 51.6634 26.5194 52.8805V57.695C26.5194 58.0841 26.8341 58.3995 27.2224 58.3995C27.6106 58.3995 27.9254 58.0841 27.9254 57.695V52.8805C27.9254 51.9673 28.4641 51.1388 29.2977 50.7698L33.317 48.9908C34.5765 51.5185 37.1503 53.1287 39.9959 53.1287C42.8522 53.1287 45.4173 51.522 46.676 48.9913L50.6941 50.7698C51.5278 51.1388 52.0665 51.9673 52.0665 52.8805V57.695C52.0665 58.0841 52.3812 58.3995 52.7695 58.3995C53.1577 58.3995 53.4725 58.0841 53.4725 57.695V52.8805C53.4725 51.9793 53.1456 51.1303 52.5846 50.4703L53.6726 49.9252L54.4893 50.703C55.0605 51.2471 55.7933 51.5189 56.5264 51.5189C57.2592 51.5189 57.9924 51.2469 58.5634 50.703L59.3801 49.9253L61.7283 51.1019C62.2572 51.3668 62.5857 51.8996 62.5857 52.4923V57.6951C62.5857 58.0842 62.9005 58.3996 63.2887 58.3996C63.677 58.3996 63.9917 58.0842 63.9917 57.6951V52.4923C63.9917 51.3626 63.3652 50.3469 62.3569 49.8416ZM56.5262 32.7979C57.7958 32.7979 58.8287 33.6642 58.8287 34.729C58.8287 34.7736 58.8251 34.8178 58.8216 34.862C58.1146 34.5653 57.3393 34.4009 56.5262 34.4009C55.7133 34.4009 54.938 34.5653 54.2313 34.8619C54.2276 34.8177 54.2238 34.7736 54.2238 34.729C54.2238 33.6642 55.2567 32.7979 56.5262 32.7979ZM24.2169 49.922L22.615 48.3167C22.6481 48.1844 22.6658 48.0468 22.6658 47.9064V47.6092C23.108 47.7547 23.5744 47.841 24.0571 47.8555C24.1112 47.8572 24.165 47.8579 24.2189 47.8579C24.752 47.8579 25.2725 47.7772 25.7678 47.6233V47.9061C25.7678 48.0589 25.7835 48.1976 25.8113 48.3242L24.2169 49.922ZM24.0992 46.4469C22.0658 46.386 20.4115 44.5911 20.4115 42.4461V41.1295C20.4115 41.0201 20.3861 40.9122 20.3372 40.8144L19.9032 39.9444C19.7442 39.6256 19.6601 39.2688 19.6601 38.9124V38.8704C19.6601 37.1829 21.0301 35.81 22.7141 35.81H28.7736V38.7346C28.7736 39.2072 28.6621 39.6805 28.4511 40.1032L28.0963 40.8143C28.0475 40.9122 28.0221 41.02 28.0221 41.1294V42.6353C28.0221 43.6756 27.6117 44.6476 26.8665 45.3722C26.1217 46.0965 25.1384 46.4785 24.0992 46.4469ZM29.9748 48.9298L27.7539 48.294C27.1737 48.1279 27.1738 48.0631 27.1738 47.9063L27.174 46.9357C27.4101 46.7718 27.6353 46.5883 27.8459 46.3834C27.9876 46.2456 28.1196 46.1006 28.2433 45.9503C28.3563 46.1799 28.5294 46.3804 28.7531 46.5256C29.3167 46.8912 30.3801 47.4987 31.9439 48.0582L29.9748 48.9298ZM39.9958 51.7198C37.7085 51.7198 35.637 50.4385 34.604 48.4212L35.6273 47.9683C36.4259 47.6148 36.9419 46.8212 36.9419 45.9463V44.2558C37.8864 44.6362 38.9171 44.8459 39.9958 44.8459C41.0745 44.8459 42.1051 44.6362 43.0498 44.2558V45.9463C43.0498 46.8212 43.5658 47.6149 44.3644 47.9683L45.3875 48.4211C44.3552 50.4406 42.2916 51.7198 39.9958 51.7198ZM46.0917 47.1925L44.9324 46.6793C44.6429 46.5512 44.4558 46.2634 44.4558 45.9462V43.5241C46.7149 42.0552 48.2127 39.5053 48.2127 36.6114V35.2904C48.2127 34.4318 47.8485 33.6219 47.2133 33.0685C45.8008 31.8374 42.6035 29.689 37.0603 29.1335C36.6749 29.0948 36.3294 29.3771 36.2908 29.7644C36.2522 30.1516 36.5341 30.4968 36.9204 30.5355C42.0762 31.0522 45.0042 33.0104 46.2907 34.1317C46.6187 34.4175 46.8067 34.8399 46.8067 35.2904V36.6114C46.8067 40.3749 43.7514 43.4368 39.9959 43.4368C36.2405 43.4368 33.1851 40.3749 33.1851 36.6114V36.0221C33.1851 35.7513 33.3349 35.5034 33.5858 35.3586C34.4647 34.8515 35.6238 33.9119 36.1546 32.3162C36.2774 31.9472 36.0783 31.5481 35.7099 31.4251C35.3418 31.302 34.9435 31.5016 34.8207 31.8707C34.4296 33.0464 33.5517 33.7523 32.8842 34.1375C32.2025 34.5309 31.779 35.253 31.779 36.0222V36.6115C31.779 39.5055 33.2767 42.0553 35.536 43.5242V45.9463C35.536 46.2635 35.3489 46.5512 35.0593 46.6794L33.9 47.1926C31.6357 46.5855 30.1849 45.776 29.5172 45.3429C29.5039 45.3343 29.4964 45.3244 29.5002 45.3021C29.7454 43.8495 30.3755 39.6596 30.9291 32.1454C31.1332 29.3729 32.1085 27.0508 33.7495 25.4305C35.3538 23.8465 37.5137 23.0091 39.9958 23.0091C42.478 23.0091 44.6379 23.8465 46.2421 25.4305C47.8831 27.0508 48.8584 29.3728 49.0627 32.1453C49.6162 39.6592 50.2463 43.8494 50.4916 45.3021C50.4953 45.3244 50.4878 45.3343 50.4744 45.3429C49.8058 45.7766 48.355 46.5856 46.0917 47.1925ZM53.5691 48.3718C53.5691 48.3903 53.5589 48.407 53.5424 48.4152L51.3399 49.5189C51.3137 49.5066 51.2886 49.4928 51.2621 49.481L48.0479 48.0584C49.611 47.4991 50.6742 46.8919 51.2385 46.5257C51.7233 46.2111 51.9743 45.6387 51.8779 45.0671C51.8726 45.0358 51.8669 45.0016 51.8613 44.9677C52.2567 45.7645 52.8478 46.4403 53.5691 46.938V48.3718ZM57.5946 49.6818C56.9956 50.2525 56.0569 50.2524 55.4577 49.6818L54.8043 49.0595C54.9145 48.8525 54.975 48.6177 54.975 48.3718V47.6221C55.466 47.7748 55.9868 47.8578 56.5261 47.8578C57.0654 47.8578 57.5863 47.7748 58.0772 47.6221L58.0771 48.3716C58.0771 48.6177 58.1376 48.8525 58.2479 49.0596L57.5946 49.6818ZM56.5262 46.4487C54.5798 46.4487 52.954 44.988 52.7447 43.051C52.7335 42.9472 52.6995 42.8473 52.6449 42.7582C52.203 42.0371 51.9696 41.2135 51.9696 40.3763C51.9696 37.8585 54.0136 35.81 56.5262 35.81C59.0388 35.81 61.0829 37.8585 61.0829 40.3764C61.0829 40.8618 61.0039 41.3425 60.8518 41.8015C58.8556 39.7692 55.3441 38.9727 55.1748 38.9354C54.9669 38.8894 54.7492 38.9405 54.5831 39.0742C54.4171 39.208 54.3205 39.4099 54.3205 39.6233C54.3205 39.6279 54.2884 40.1167 53.7751 40.6312C53.5005 40.9063 53.5005 41.3524 53.7751 41.6274C54.0496 41.9026 54.4947 41.9026 54.7692 41.6274C55.1646 41.2312 55.3968 40.8291 55.5331 40.4895C56.716 40.8417 59.1712 41.731 60.2731 43.2921C59.9604 45.1078 58.3909 46.4487 56.5262 46.4487Z" fill="white"/>
<path d="M60.2811 53.4038C59.8929 53.4038 59.5781 53.7192 59.5781 54.1083V57.6954C59.5781 58.0845 59.8929 58.3999 60.2811 58.3999C60.6694 58.3999 60.9841 58.0845 60.9841 57.6954V54.1083C60.9841 53.7192 60.6694 53.4038 60.2811 53.4038Z" fill="white"/>
</svg>
