<svg width="280" height="132" viewBox="0 0 280 132" fill="none" xmlns="http://www.w3.org/2000/svg">
<rect x="100" width="80" height="80" rx="25" fill="#1082CE"/>
<path d="M154.45 46.6506V46.5194L154.364 46.4205C153.37 45.2814 152.75 43.8162 152.75 42.2V35.4C152.75 31.8431 155.643 28.95 159.2 28.95C162.757 28.95 165.65 31.8431 165.65 35.4V42.2C165.65 43.8179 165.03 45.2814 164.036 46.4205L163.95 46.5194V46.6506V64.3C163.95 65.0453 163.347 65.65 162.6 65.65C161.853 65.65 161.25 65.0453 161.25 64.3V48.7586V48.3066L160.812 48.4197C160.284 48.5564 159.752 48.65 159.2 48.65C158.648 48.65 158.116 48.5564 157.588 48.4197L157.15 48.3066V48.7586V64.3C157.15 65.0453 156.547 65.65 155.8 65.65C155.053 65.65 154.45 65.0453 154.45 64.3V46.6506ZM134.946 39.9847L134.946 39.9856C135.083 40.314 135.083 40.686 134.946 41.0144L134.946 41.0153C134.876 41.183 134.778 41.3312 134.653 41.4561L134.653 41.4562L131.255 44.8555C131.255 44.8555 131.255 44.8555 131.255 44.8555C130.991 45.1177 130.646 45.25 130.3 45.25C129.954 45.25 129.609 45.1178 129.346 44.8544C128.818 44.3264 128.818 43.4736 129.346 42.9456L129.844 42.4475L130.441 41.85H129.596H121.8C121.053 41.85 120.45 41.2453 120.45 40.5C120.45 39.7547 121.053 39.15 121.8 39.15H129.596H130.441L129.844 38.5525L129.346 38.0544C128.818 37.5264 128.818 36.6736 129.346 36.1456C129.874 35.6176 130.726 35.6176 131.254 36.1456L134.653 39.5455L134.654 39.5469C134.778 39.6693 134.876 39.8168 134.946 39.9847ZM125.55 18.4V18.05H125.2H118.4H118.05V18.4V62.6V62.95H118.4H125.2H125.55V62.6V49C125.55 48.2547 126.153 47.65 126.9 47.65C127.647 47.65 128.25 48.2547 128.25 49V64.3C128.25 65.0453 127.647 65.65 126.9 65.65H116.7C115.953 65.65 115.35 65.0453 115.35 64.3V16.7C115.35 15.9547 115.953 15.35 116.7 15.35H126.9C127.647 15.35 128.25 15.9547 128.25 16.7V32C128.25 32.7453 127.647 33.35 126.9 33.35C126.153 33.35 125.55 32.7453 125.55 32V18.4ZM148.65 47.3V47.65H149C150.682 47.65 152.05 49.0182 152.05 50.7V62.6C152.05 64.2818 150.682 65.65 149 65.65H140.5C138.818 65.65 137.45 64.2818 137.45 62.6V50.7C137.45 49.0182 138.818 47.65 140.5 47.65H140.85V47.3V40.5C140.85 39.7547 141.453 39.15 142.2 39.15H147.3C148.047 39.15 148.65 39.7547 148.65 40.5V47.3ZM143.9 41.85H143.55V42.2V47.3V47.65H143.9H145.6H145.95V47.3V42.2V41.85H145.6H143.9ZM148.995 62.95H149.345L149.345 62.6002L149.35 50.7001L149.35 50.35H149H147.3H142.2H140.5H140.15V50.7V62.6V62.95H140.5H148.995ZM159.2 15.35C162.757 15.35 165.65 18.2431 165.65 21.8C165.65 25.3569 162.757 28.25 159.2 28.25C155.643 28.25 152.75 25.3569 152.75 21.8C152.75 18.2431 155.643 15.35 159.2 15.35ZM155.45 21.8C155.45 23.8684 157.132 25.55 159.2 25.55C161.268 25.55 162.95 23.8684 162.95 21.8C162.95 19.7316 161.268 18.05 159.2 18.05C157.132 18.05 155.45 19.7316 155.45 21.8ZM159.2 45.95C161.268 45.95 162.95 44.2684 162.95 42.2V35.4C162.95 33.3316 161.268 31.65 159.2 31.65C157.132 31.65 155.45 33.3316 155.45 35.4V42.2C155.45 44.2684 157.132 45.95 159.2 45.95ZM145.95 52.75H146.95V60.55H145.95V52.75ZM142.55 52.75H143.55V60.55H142.55V52.75Z" fill="white" stroke="#1082CE" stroke-width="0.7"/>
<path d="M10.3392 100.8H14.9312C17.2192 100.8 18.7392 101.744 18.7392 103.632C18.7392 105.056 17.8272 105.856 16.9472 106.112C17.8752 106.368 19.1872 107.104 19.1872 108.928C19.1872 111.472 16.6912 112 15.0592 112H10.3392V100.8ZM17.8272 108.784C17.8272 107.04 16.2272 106.848 15.1552 106.848H11.6832V110.72H14.7872C16.1952 110.72 17.8272 110.624 17.8272 108.784ZM17.3792 103.824C17.3792 102.496 16.4032 102.08 14.8192 102.08H11.6832V105.568H15.1872C16.3552 105.568 17.3792 105.104 17.3792 103.824ZM24.6836 112H21.0356V104.32H22.3156V107.008H24.6836C26.5556 107.008 27.6596 108.08 27.6596 109.504C27.6596 110.928 26.5556 112 24.6836 112ZM22.3156 108.16V110.848H24.5236C25.6436 110.848 26.3636 110.416 26.3636 109.504C26.3636 108.592 25.6436 108.16 24.5236 108.16H22.3156ZM30.4276 112H29.1476V104.32H30.4276V112ZM37.6172 104.32H39.0892L36.2732 108.048L39.2492 112H37.7772L35.5372 108.96L33.2812 112H31.8092L34.8012 108.048L31.9692 104.32H33.4412L35.5372 107.152L37.6172 104.32ZM39.7419 108.16C39.7419 105.536 41.7579 104.128 43.8379 104.128C45.9339 104.128 47.9339 105.536 47.9339 108.16C47.9339 110.784 45.9339 112.192 43.8379 112.192C41.7579 112.192 39.7419 110.784 39.7419 108.16ZM46.6539 108.16C46.6539 106.384 45.4059 105.344 43.8379 105.344C42.2699 105.344 41.0219 106.384 41.0219 108.16C41.0219 109.936 42.2699 110.976 43.8379 110.976C45.4059 110.976 46.6539 109.936 46.6539 108.16ZM50.0468 114.08H48.7988V110.848H49.8228C50.7828 109.152 51.1668 107.184 51.1348 104.32H56.8628V110.848H57.9828V114.08H56.7348V112H50.0468V114.08ZM52.3668 105.472C52.3028 107.776 51.9188 109.376 51.2148 110.848H55.5828V105.472H52.3668ZM64.7642 112H63.6762V104.32H64.9562V109.936L69.6602 104.32H70.7482V112H69.4682V106.384L64.7642 112ZM78.8577 109.936C78.8577 111.392 77.5297 112.192 75.4017 112.192C74.3137 112.192 73.2897 111.952 72.5697 111.6V110.384C73.2257 110.736 74.3137 111.008 75.2417 111.008C76.4577 111.008 77.5777 110.784 77.5777 109.792C77.5777 108.848 76.6497 108.688 75.8817 108.688H74.2017V107.504H75.8817C76.7457 107.504 77.4177 107.248 77.4177 106.512C77.4177 105.664 76.5057 105.296 75.3057 105.296C74.3937 105.296 73.4017 105.552 72.6977 105.904V104.704C73.4657 104.352 74.4257 104.112 75.4497 104.112C77.5937 104.112 78.6977 104.992 78.6977 106.336C78.6977 107.264 78.1377 107.872 77.2737 108.064C78.1377 108.288 78.8577 108.944 78.8577 109.936ZM90.4671 109.936C90.4671 111.392 89.1391 112.192 87.0111 112.192C85.9231 112.192 84.8991 111.952 84.1791 111.6V110.384C84.8351 110.736 85.9231 111.008 86.8511 111.008C88.0671 111.008 89.1871 110.784 89.1871 109.792C89.1871 108.848 88.2591 108.688 87.4911 108.688H85.8111V107.504H87.4911C88.3551 107.504 89.0271 107.248 89.0271 106.512C89.0271 105.664 88.1151 105.296 86.9151 105.296C86.0031 105.296 85.0111 105.552 84.3071 105.904V104.704C85.0751 104.352 86.0351 104.112 87.0591 104.112C89.2031 104.112 90.3071 104.992 90.3071 106.336C90.3071 107.264 89.7471 107.872 88.8831 108.064C89.7471 108.288 90.4671 108.944 90.4671 109.936ZM91.8201 108.16C91.8201 105.536 93.8361 104.128 95.9161 104.128C98.0121 104.128 100.012 105.536 100.012 108.16C100.012 110.784 98.0121 112.192 95.9161 112.192C93.8361 112.192 91.8201 110.784 91.8201 108.16ZM98.7321 108.16C98.7321 106.384 97.4841 105.344 95.9161 105.344C94.3481 105.344 93.1001 106.384 93.1001 108.16C93.1001 109.936 94.3481 110.976 95.9161 110.976C97.4841 110.976 98.7321 109.936 98.7321 108.16ZM103.128 112H101.848V104.32H103.128V107.568H107.576V104.32H108.856V112H107.576V108.752H103.128V112ZM114.871 112H111.223V104.32H112.503V107.008H114.871C116.743 107.008 117.847 108.08 117.847 109.504C117.847 110.928 116.743 112 114.871 112ZM112.503 108.16V110.848H114.711C115.831 110.848 116.551 110.416 116.551 109.504C116.551 108.592 115.831 108.16 114.711 108.16H112.503ZM120.615 112H119.335V104.32H120.615V112ZM128.253 112H126.973V104.32H128.253V107.52H129.805L132.237 104.32H133.725L130.813 108.144L134.077 112H132.573L129.757 108.704H128.253V112ZM134.429 108.16C134.429 105.536 136.445 104.128 138.525 104.128C140.621 104.128 142.621 105.536 142.621 108.16C142.621 110.784 140.621 112.192 138.525 112.192C136.445 112.192 134.429 110.784 134.429 108.16ZM141.341 108.16C141.341 106.384 140.093 105.344 138.525 105.344C136.957 105.344 135.709 106.384 135.709 108.16C135.709 109.936 136.957 110.976 138.525 110.976C140.093 110.976 141.341 109.936 141.341 108.16ZM145.673 112H144.457V104.32H145.849L148.649 108.576L151.449 104.32H152.841V112H151.625V106.208L149.129 110H148.169L145.673 106.208V112ZM160.439 115.52H159.159V112.192C156.615 112.128 154.663 110.592 154.663 108.16C154.663 105.728 156.615 104.192 159.159 104.128V100.8H160.439V104.128C162.983 104.192 164.935 105.728 164.935 108.16C164.935 110.592 162.983 112.128 160.439 112.192V115.52ZM155.943 108.16C155.943 109.92 157.223 111.008 159.159 111.072V105.248C157.223 105.312 155.943 106.4 155.943 108.16ZM160.439 105.248V111.072C162.375 111.008 163.655 109.92 163.655 108.16C163.655 106.4 162.375 105.312 160.439 105.248ZM166.226 108.16C166.226 105.536 168.242 104.128 170.322 104.128C172.418 104.128 174.418 105.536 174.418 108.16C174.418 110.784 172.418 112.192 170.322 112.192C168.242 112.192 166.226 110.784 166.226 108.16ZM173.138 108.16C173.138 106.384 171.89 105.344 170.322 105.344C168.754 105.344 167.506 106.384 167.506 108.16C167.506 109.936 168.754 110.976 170.322 110.976C171.89 110.976 173.138 109.936 173.138 108.16ZM177.406 105.6C178.094 104.816 179.038 104.128 180.51 104.128C182.702 104.128 184.35 105.856 184.35 108.16C184.35 110.464 182.702 112.192 180.51 112.192C179.038 112.192 178.094 111.504 177.534 110.848V115.52H176.254V104.32H177.406V105.6ZM183.07 108.16C183.07 106.4 181.854 105.312 180.366 105.312C178.99 105.312 177.966 106.208 177.534 107.2V109.12C177.966 110.112 178.99 111.008 180.366 111.008C181.854 111.008 183.07 109.92 183.07 108.16ZM189.157 112H187.877V105.504H185.045V104.32H191.973V105.504H189.157V112ZM199.588 110.4C199.588 110.864 199.844 110.992 200.18 110.992C200.372 110.992 200.58 110.944 200.772 110.88V111.92C200.468 112.032 200.132 112.096 199.812 112.096C199.188 112.096 198.628 111.84 198.404 111.168C197.636 111.808 196.66 112.192 195.412 112.192C194.052 112.192 192.708 111.472 192.708 109.856C192.708 107.872 194.532 107.264 196.18 107.264C196.852 107.264 197.668 107.36 198.308 107.504V107.232C198.308 106.08 197.524 105.312 196.116 105.312C194.932 105.312 193.988 105.6 193.316 105.888V104.64C193.924 104.432 194.98 104.128 196.244 104.128C198.292 104.128 199.588 105.248 199.588 107.392V110.4ZM194.02 109.792C194.02 110.688 194.836 111.088 195.684 111.088C196.66 111.088 197.636 110.688 198.308 109.968V108.56C197.764 108.448 196.98 108.336 196.356 108.336C195.236 108.336 194.02 108.672 194.02 109.792ZM206.609 114.08H205.361V110.848H206.385C207.345 109.152 207.729 107.184 207.697 104.32H213.425V110.848H214.545V114.08H213.297V112H206.609V114.08ZM208.929 105.472C208.865 107.776 208.481 109.376 207.777 110.848H212.145V105.472H208.929ZM218.974 105.504C218.718 109.44 218.174 112.128 216.19 112.128C215.902 112.128 215.598 112.08 215.262 111.952V110.944C215.438 111.008 215.614 111.04 215.774 111.04C217.134 111.04 217.582 108.448 217.726 104.32H223.374V112H222.094V105.504H218.974ZM226.507 112H225.003L227.227 109.184C226.027 108.832 225.387 107.888 225.387 106.816C225.387 105.472 226.395 104.32 228.267 104.32H232.043V112H230.763V109.312H228.603L226.507 112ZM226.667 106.816C226.667 107.664 227.307 108.16 228.379 108.16H230.763V105.472H228.379C227.307 105.472 226.667 105.968 226.667 106.816ZM241.595 112H240.315V105.504H237.483V104.32H244.411V105.504H241.595V112ZM245.086 108.16C245.086 105.472 247.086 104.128 248.91 104.128C251.87 104.128 252.958 106.544 252.478 108.72H246.366C246.526 110.336 247.982 111.008 249.534 111.008C250.478 111.008 251.406 110.752 252.062 110.384V111.632C251.358 112 250.35 112.192 249.342 112.192C247.07 112.192 245.086 110.896 245.086 108.16ZM251.342 107.6C251.454 106.784 250.942 105.312 248.99 105.312C247.678 105.312 246.462 106.096 246.366 107.6H251.342ZM261.852 108.384C261.852 110.784 260.252 112.192 257.932 112.192C255.612 112.192 253.948 110.608 253.948 107.696C253.948 105.12 254.94 103.344 256.316 102.48C258.524 101.12 260.044 101.696 261.164 100.608V101.952C260.06 102.736 258.828 102.4 257.068 103.424C255.996 104.064 255.564 105.104 255.244 106.08C255.788 105.232 256.876 104.64 258.076 104.64C260.076 104.64 261.852 106.096 261.852 108.384ZM255.228 108.416C255.228 109.872 256.284 110.976 257.9 110.976C259.58 110.976 260.572 109.872 260.572 108.416C260.572 106.96 259.58 105.856 257.9 105.856C256.3 105.856 255.228 107.12 255.228 108.416ZM264.413 112H262.909L265.133 109.184C263.933 108.832 263.293 107.888 263.293 106.816C263.293 105.472 264.301 104.32 266.173 104.32H269.949V112H268.669V109.312H266.509L264.413 112ZM264.573 106.816C264.573 107.664 265.213 108.16 266.285 108.16H268.669V105.472H266.285C265.213 105.472 264.573 105.968 264.573 106.816ZM78.9953 128H77.7153V120.32H84.7233V128H83.4433V121.504H78.9953V128ZM88.2423 121.6C88.9303 120.816 89.8743 120.128 91.3463 120.128C93.5383 120.128 95.1863 121.856 95.1863 124.16C95.1863 126.464 93.5383 128.192 91.3463 128.192C89.8743 128.192 88.9303 127.504 88.3703 126.848V131.52H87.0903V120.32H88.2423V121.6ZM93.9062 124.16C93.9062 122.4 92.6903 121.312 91.2023 121.312C89.8263 121.312 88.8023 122.208 88.3703 123.2V125.12C88.8023 126.112 89.8263 127.008 91.2023 127.008C92.6903 127.008 93.9062 125.92 93.9062 124.16ZM98.1158 128H97.0278V120.32H98.3078V125.936L103.012 120.32H104.1V128H102.82V122.384L98.1158 128ZM110.801 128H106.465V120.32H110.673C112.017 120.32 113.041 121.04 113.041 122.4C113.041 123.2 112.593 123.84 112.017 124.096C112.641 124.304 113.281 124.912 113.281 125.872C113.281 127.136 112.465 128 110.801 128ZM107.745 124.672V126.88H110.625C111.425 126.88 112.001 126.64 112.001 125.792C112.001 124.88 111.313 124.672 110.673 124.672H107.745ZM107.745 121.44V123.568H110.545C111.217 123.568 111.745 123.312 111.745 122.528C111.745 121.664 111.089 121.44 110.545 121.44H107.745ZM118.879 128H115.231V120.32H116.511V123.008H118.879C120.751 123.008 121.855 124.08 121.855 125.504C121.855 126.928 120.751 128 118.879 128ZM116.511 124.16V126.848H118.719C119.839 126.848 120.559 126.416 120.559 125.504C120.559 124.592 119.839 124.16 118.719 124.16H116.511ZM124.623 128H123.343V120.32H124.623V128ZM132.997 128H131.717V125.328C131.013 125.6 130.389 125.728 129.429 125.728C127.669 125.728 126.469 124.864 126.469 122.976V120.32H127.749V122.88C127.749 124.176 128.533 124.544 129.812 124.544C130.581 124.544 131.125 124.448 131.717 124.208V120.32H132.997V128ZM136.652 128H135.372V120.32H136.652V123.568H141.1V120.32H142.38V128H141.1V124.752H136.652V128ZM144.219 124.16C144.219 121.536 146.235 120.128 148.315 120.128C150.411 120.128 152.411 121.536 152.411 124.16C152.411 126.784 150.411 128.192 148.315 128.192C146.235 128.192 144.219 126.784 144.219 124.16ZM151.131 124.16C151.131 122.384 149.883 121.344 148.315 121.344C146.747 121.344 145.499 122.384 145.499 124.16C145.499 125.936 146.747 126.976 148.315 126.976C149.883 126.976 151.131 125.936 151.131 124.16ZM153.719 124.16C153.719 121.472 155.719 120.128 157.543 120.128C160.503 120.128 161.591 122.544 161.111 124.72H154.999C155.159 126.336 156.615 127.008 158.167 127.008C159.111 127.008 160.039 126.752 160.695 126.384V127.632C159.991 128 158.983 128.192 157.975 128.192C155.703 128.192 153.719 126.896 153.719 124.16ZM159.975 123.6C160.087 122.784 159.575 121.312 157.623 121.312C156.311 121.312 155.095 122.096 154.999 123.6H159.975ZM167.445 130.08H166.197V126.848H167.221C168.181 125.152 168.565 123.184 168.533 120.32H174.261V126.848H175.381V130.08H174.133V128H167.445V130.08ZM169.765 121.472C169.701 123.776 169.317 125.376 168.613 126.848H172.981V121.472H169.765ZM176.406 124.16C176.406 121.472 178.406 120.128 180.23 120.128C183.19 120.128 184.278 122.544 183.798 124.72H177.686C177.846 126.336 179.302 127.008 180.854 127.008C181.798 127.008 182.726 126.752 183.382 126.384V127.632C182.678 128 181.67 128.192 180.662 128.192C178.39 128.192 176.406 126.896 176.406 124.16ZM182.662 123.6C182.774 122.784 182.262 121.312 180.31 121.312C178.998 121.312 177.782 122.096 177.686 123.6H182.662ZM188.388 121.504C188.132 125.44 187.588 128.128 185.604 128.128C185.316 128.128 185.012 128.08 184.676 127.952V126.944C184.852 127.008 185.028 127.04 185.188 127.04C186.548 127.04 186.996 124.448 187.14 120.32H192.788V128H191.508V121.504H188.388ZM194.625 124.16C194.625 121.536 196.641 120.128 198.721 120.128C200.817 120.128 202.817 121.536 202.817 124.16C202.817 126.784 200.817 128.192 198.721 128.192C196.641 128.192 194.625 126.784 194.625 124.16ZM201.537 124.16C201.537 122.384 200.289 121.344 198.721 121.344C197.153 121.344 195.905 122.384 195.905 124.16C195.905 125.936 197.153 126.976 198.721 126.976C200.289 126.976 201.537 125.936 201.537 124.16Z" fill="white"/>
</svg>
