<svg width="188" height="40" viewBox="0 0 188 40" fill="none" xmlns="http://www.w3.org/2000/svg">
<path fill-rule="evenodd" clip-rule="evenodd" d="M78.8259 28.6151C77.9332 28.6151 76.898 28.4367 75.755 28.0441L76.2552 23.3829C76.4193 23.42 76.5737 23.4384 76.7193 23.4384C79.2895 23.4384 79.6469 17.9417 79.9681 11.0867L94.6051 11.0865V28.2225H88.5359V15.7275H85.5013C85.0732 22.8674 83.6807 28.6151 78.8259 28.6151Z" fill="white"/>
<path fill-rule="evenodd" clip-rule="evenodd" d="M125.066 24.1164C127.744 24.1164 128.1 21.7611 128.1 20.5467C128.1 19.3334 127.744 16.9773 125.066 16.9773C122.389 16.9773 122.031 19.3336 122.031 20.5467C122.031 21.7611 122.389 24.1166 125.066 24.1164ZM125.066 28.758C120.104 28.758 115.784 26.0808 115.784 18.227C115.784 11.9081 117.962 8.58789 121.032 6.66075C125.384 3.94784 129.458 4.69134 131.949 3.35014L132.849 8.05229C130.635 10.0514 127.637 9.01627 124.673 10.4801C122.925 11.3371 122.031 13.3365 122.031 14.7283C123.031 13.4784 124.637 12.3365 127.208 12.3365C131.278 12.3363 134.348 15.1926 134.348 20.5467C134.348 26.0806 130.207 28.758 125.066 28.758Z" fill="white"/>
<path fill-rule="evenodd" clip-rule="evenodd" d="M147.406 11.0865H153.653L146.478 30.0077C144.515 35.1482 141.551 36.541 138.624 36.541C137.554 36.5402 136.483 36.3266 135.483 36.0769L136.63 31.2879C137.018 31.3367 137.411 31.3646 137.803 31.3646C139.302 31.3643 140.552 30.5068 141.373 28.6511L133.305 11.0865H139.731L143.908 21.2964L147.406 11.0865Z" fill="white"/>
<path fill-rule="evenodd" clip-rule="evenodd" d="M155.093 28.2225V11.0865H168.445V16.0847H161.162V28.2225H155.093Z" fill="white"/>
<path fill-rule="evenodd" clip-rule="evenodd" d="M177.076 24.6525C178.076 24.6525 178.968 24.4386 179.896 23.76L179.896 21.4395C179.361 21.2611 178.54 21.1186 177.718 21.1186C176.291 21.1186 175.005 21.6179 175.005 22.9751C175.005 23.867 175.791 24.6525 177.076 24.6525ZM187.143 24.4026L187.821 28.044C187.001 28.3649 185.894 28.5796 184.751 28.5796C182.859 28.5791 181.467 27.9016 180.682 26.6879C179.04 27.9725 177.147 28.758 174.72 28.758C171.435 28.758 168.758 26.7944 168.758 23.4747C168.758 19.155 172.863 17.8344 176.184 17.8344C177.469 17.8344 178.754 17.9763 179.896 18.227L179.896 17.6199C179.896 16.4063 178.754 15.4775 176.327 15.4775C174.518 15.4775 172.825 15.8937 171.359 16.4092L170.329 11.6937C171.757 11.2299 174.47 10.5516 177.005 10.5516C182.467 10.5516 185.965 12.4432 185.965 18.5484L185.965 23.3314C185.965 24.1524 186.536 24.4026 187.143 24.4026Z" fill="white"/>
<path fill-rule="evenodd" clip-rule="evenodd" d="M104.737 24.6525C105.737 24.6525 106.629 24.4386 107.557 23.76V21.4395C107.021 21.2611 106.201 21.1186 105.38 21.1186C103.952 21.1186 102.667 21.6179 102.667 22.9751C102.667 23.867 103.452 24.6525 104.737 24.6525ZM114.804 24.4026L115.483 28.044C114.662 28.3649 113.555 28.5796 112.413 28.5796C110.521 28.5791 109.128 27.9016 108.343 26.6879C106.701 27.9725 104.809 28.758 102.381 28.758C99.0968 28.758 96.4194 26.7944 96.4194 23.4747C96.4194 19.155 100.525 17.8344 103.845 17.8344C105.129 17.8344 106.415 17.9763 107.557 18.227V17.6199C107.557 16.4063 106.415 15.4775 103.988 15.4775C102.18 15.4775 100.486 15.8937 99.0201 16.4092L97.9899 11.6937C99.4188 11.2299 102.132 10.5516 104.665 10.5516C110.128 10.5516 113.626 12.4432 113.626 18.5484V23.3314C113.626 24.1524 114.197 24.4026 114.804 24.4026Z" fill="white"/>
<path fill-rule="evenodd" clip-rule="evenodd" d="M63.9204 24.6525C64.9206 24.6525 65.8125 24.4386 66.741 23.76V21.4395C66.2051 21.2611 65.3842 21.1186 64.5629 21.1186C63.1356 21.1186 61.8506 21.6179 61.8506 22.9751C61.8506 23.867 62.6361 24.6525 63.9204 24.6525ZM73.9881 24.4026L74.6666 28.044C73.8454 28.3649 72.7382 28.5796 71.5961 28.5796C69.7039 28.5791 68.3119 27.9016 67.5266 26.6879C65.8846 27.9725 63.9921 28.758 61.5651 28.758C58.2804 28.758 55.603 26.7944 55.603 23.4747C55.6032 19.155 59.7084 17.8344 63.0284 17.8344C64.3135 17.8344 65.5989 17.9763 66.741 18.227V17.6199C66.741 16.4063 65.5989 15.4775 63.1711 15.4775C61.3626 15.4775 59.6698 15.8937 58.2039 16.4092L57.1734 11.6937C58.6015 11.2299 61.3147 10.5516 63.8492 10.5516C69.3113 10.5516 72.8092 12.4432 72.8092 18.5484V23.3314C72.8092 24.1524 73.381 24.4026 73.9881 24.4026Z" fill="white"/>
<path fill-rule="evenodd" clip-rule="evenodd" d="M13.2478 6.33786C13.3566 6.39891 13.4662 6.4605 13.5757 6.52389C13.6397 6.56015 13.7038 6.59796 13.7674 6.63553C13.9889 6.76388 14.2107 6.89592 14.4338 7.03001C14.4802 7.05819 14.5267 7.08659 14.5736 7.11398C14.6775 7.1779 14.7823 7.24316 14.8872 7.30812C14.9641 7.3556 15.0413 7.40282 15.1175 7.45135C15.2192 7.51553 15.3221 7.5797 15.423 7.64492C15.5055 7.69736 15.5872 7.7495 15.6688 7.80298C15.7685 7.86637 15.8678 7.93108 15.9675 7.99604C16.0578 8.055 16.1488 8.11605 16.2396 8.17657C16.392 8.27701 16.5446 8.38061 16.698 8.48418C16.8044 8.55618 16.9111 8.62868 17.0181 8.70251C17.1104 8.76591 17.2025 8.83063 17.2943 8.89507C17.3898 8.96133 17.4848 9.02785 17.5803 9.09542C17.6729 9.16142 17.765 9.22692 17.8574 9.29266C17.9565 9.36362 18.0559 9.43614 18.1552 9.50814C18.2432 9.57153 18.3306 9.63493 18.4183 9.69937C18.55 9.79485 18.6807 9.89318 18.8121 9.99154C18.917 10.0698 19.0219 10.1483 19.1275 10.2282C19.2562 10.325 19.3845 10.4228 19.5132 10.5217C19.5956 10.5837 19.6777 10.6484 19.7602 10.7129C19.87 10.7979 19.9793 10.884 20.0896 10.9698C20.1734 11.0356 20.2564 11.1016 20.3393 11.1671C20.4562 11.2594 20.5731 11.3531 20.6892 11.4475C20.7643 11.5068 20.8379 11.5662 20.9122 11.6265C21.0625 11.7481 21.2133 11.872 21.3626 11.9951C21.5121 11.8723 21.6607 11.7504 21.8094 11.6302C21.8877 11.5657 21.9667 11.5028 22.0458 11.4397C22.1579 11.3486 22.2689 11.2597 22.381 11.1713C22.4682 11.1021 22.5545 11.034 22.6414 10.9654C22.7471 10.883 22.852 10.8008 22.9576 10.7189C23.0435 10.6521 23.13 10.5845 23.2164 10.5185C23.3361 10.4259 23.4556 10.3367 23.5743 10.2456C23.6979 10.1525 23.8206 10.0604 23.9427 9.96937C24.0632 9.87963 24.1832 9.79013 24.3027 9.70273C24.395 9.63464 24.4866 9.5684 24.5782 9.50187C24.6734 9.433 24.7681 9.36466 24.8633 9.29709C24.9588 9.2277 25.0546 9.16009 25.1501 9.09226C25.2411 9.02756 25.3319 8.96416 25.423 8.90103C25.5187 8.83346 25.6147 8.76694 25.7104 8.70068C25.8054 8.63468 25.9003 8.57023 25.9966 8.50527C26.1667 8.3897 26.3357 8.27648 26.5045 8.16404C26.5885 8.10795 26.6712 8.05292 26.7542 7.99788C26.8577 7.93083 26.9608 7.86458 27.0629 7.79727C27.1414 7.7477 27.2191 7.69759 27.2968 7.64828C27.4025 7.58098 27.5071 7.51444 27.6114 7.4487C27.6847 7.40252 27.757 7.35844 27.8293 7.31357C27.9381 7.246 28.0463 7.17845 28.1546 7.11271C28.1833 7.09523 28.2112 7.07903 28.2389 7.06155C28.4833 6.91337 28.7263 6.76962 28.9686 6.62926C29.0281 6.59431 29.0875 6.5599 29.1464 6.52573C29.2589 6.46051 29.3703 6.39762 29.4827 6.33501C29.5357 6.30501 29.589 6.27474 29.6427 6.24579C26.8333 3.7614 24.0384 1.66417 21.3626 0C18.6867 1.66417 15.8924 3.7614 13.0824 6.24579C13.1375 6.27501 13.1928 6.30655 13.2478 6.33786Z" fill="white"/>
<path fill-rule="evenodd" clip-rule="evenodd" d="M36.4205 13.3914C36.3062 13.4538 36.1906 13.5172 36.0758 13.5816C36.0169 13.6142 35.9569 13.6471 35.8979 13.6803C35.7844 13.7447 35.6702 13.8094 35.5567 13.8741C35.4996 13.9067 35.4433 13.9406 35.3866 13.9735C35.1331 14.1204 34.8781 14.2714 34.6224 14.4266C34.6044 14.4378 34.586 14.4485 34.5672 14.4595C34.4579 14.526 34.3475 14.5952 34.2371 14.663C34.1664 14.7071 34.095 14.7509 34.024 14.7958C33.9179 14.8615 33.813 14.9286 33.7068 14.9964C33.6304 15.0452 33.5539 15.0947 33.4764 15.1443C33.3728 15.2116 33.2685 15.2784 33.165 15.3473C33.0838 15.3995 33.003 15.454 32.9218 15.5074C32.7481 15.6238 32.5724 15.7415 32.3966 15.8607C32.3055 15.9225 32.214 15.9846 32.123 16.0472C32.0262 16.114 31.9283 16.1824 31.8315 16.2502C31.7418 16.3131 31.6523 16.3754 31.5621 16.4393C31.4658 16.5069 31.3695 16.5763 31.2738 16.6449C31.1796 16.7119 31.086 16.78 30.9918 16.8481C30.8992 16.9154 30.807 16.9825 30.7139 17.0511C30.5944 17.1385 30.475 17.2272 30.355 17.3167C30.2326 17.4082 30.1098 17.5001 29.9869 17.5932C29.8669 17.6832 29.7479 17.7745 29.6279 17.8661C29.5413 17.9324 29.4549 17.9999 29.3688 18.0664C29.2632 18.1484 29.1583 18.2303 29.0534 18.3133C28.9658 18.3816 28.8786 18.4508 28.7917 18.5194C28.7054 18.588 28.6183 18.6576 28.5322 18.7275C28.7096 18.9146 28.8859 19.1032 29.0633 19.2937C29.1184 19.3534 29.1737 19.4134 29.2285 19.4731C29.3662 19.6221 29.505 19.7726 29.6422 19.9231C29.7082 19.9951 29.7732 20.0677 29.8387 20.1392C29.9731 20.2876 30.1076 20.4379 30.2425 20.5879C30.3009 20.6536 30.3594 20.7186 30.4179 20.7846C30.6086 20.9991 30.7985 21.2137 30.9876 21.4313C31.177 21.6481 31.3646 21.8654 31.5514 22.0833C31.6093 22.1508 31.6667 22.2187 31.7246 22.287C31.8548 22.4396 31.9849 22.593 32.1138 22.7467C32.1777 22.8223 32.2406 22.8985 32.3038 22.9744C32.4345 23.1307 32.5647 23.288 32.6941 23.445C32.7473 23.5092 32.801 23.5739 32.8534 23.6386C33.0327 23.8565 33.2101 24.0754 33.3859 24.2945C33.4112 24.3261 33.4365 24.3576 33.4615 24.3884C33.6131 24.5778 33.7624 24.7667 33.9119 24.9558C33.9705 25.0291 34.0274 25.103 34.0853 25.1768C34.2035 25.3273 34.3209 25.4781 34.437 25.6292C34.4978 25.7067 34.5578 25.7849 34.6178 25.8629C34.6929 25.96 34.7678 26.0578 34.8422 26.1556C34.8463 26.152 34.85 26.1491 34.8547 26.1457C34.9731 26.0505 35.0918 25.9561 35.2099 25.8616C35.2916 25.7964 35.3741 25.7322 35.4563 25.6675C35.5682 25.5791 35.6796 25.4925 35.7917 25.4053C35.8721 25.3427 35.9524 25.2806 36.0325 25.2188C36.1661 25.1165 36.299 25.0148 36.4325 24.9146C36.5283 24.8423 36.6237 24.7703 36.7192 24.6989C36.8575 24.5963 36.9946 24.4941 37.1316 24.3934C37.2172 24.331 37.3015 24.2692 37.3873 24.2076C37.4896 24.1327 37.5919 24.0595 37.6936 23.9867C37.7844 23.922 37.8746 23.8575 37.9644 23.7941C38.0633 23.7239 38.1608 23.6559 38.2584 23.587C38.3484 23.5244 38.4376 23.4612 38.5273 23.3991C38.6416 23.3211 38.7551 23.2444 38.8686 23.1669C39.0116 23.0702 39.1542 22.9744 39.2964 22.88C39.3919 22.8163 39.4877 22.7524 39.5832 22.6903C39.6802 22.6261 39.777 22.564 39.874 22.5014C39.9588 22.4461 40.0439 22.3921 40.1284 22.3384C40.2278 22.2742 40.327 22.2113 40.4264 22.1492C40.5075 22.0986 40.5873 22.0488 40.6682 21.9992C40.7692 21.9356 40.8706 21.8732 40.9716 21.8117C41.0347 21.7733 41.0971 21.736 41.1602 21.6982C41.3634 21.5761 41.5658 21.4556 41.7678 21.3387C41.8374 21.2975 41.9063 21.2573 41.9755 21.2174C42.0824 21.1564 42.1886 21.0969 42.295 21.0369C42.3629 20.998 42.431 20.9597 42.4996 20.9218C42.5739 20.8798 42.6496 20.8378 42.7245 20.7971C41.1036 18.541 39.3241 16.2898 37.3993 14.0835C37.157 13.8047 36.9131 13.5302 36.6697 13.2573C36.635 13.2759 36.601 13.2939 36.5665 13.3124C36.5175 13.3382 36.469 13.3646 36.4205 13.3914Z" fill="white"/>
<path fill-rule="evenodd" clip-rule="evenodd" d="M21.4622 12.0774C21.5154 12.1218 21.5692 12.1674 21.6229 12.2123C21.7619 12.3279 21.9013 12.4447 22.0398 12.5624C22.1149 12.626 22.1892 12.6891 22.2636 12.7528C22.3859 12.8564 22.5067 12.961 22.6288 13.0664C22.7034 13.1311 22.7784 13.1958 22.8527 13.2615C22.9868 13.3774 23.1203 13.4942 23.2536 13.6132C23.3136 13.6656 23.3726 13.7176 23.4329 13.7713C23.6217 13.9393 23.8109 14.1086 23.9995 14.2808C24.0514 14.3272 24.1036 14.3755 24.1555 14.423C24.2977 14.5526 24.4396 14.6836 24.5818 14.8151C24.6522 14.8803 24.7211 14.9453 24.7915 15.0103C24.9204 15.1297 25.0493 15.2505 25.1774 15.3728C25.2466 15.4375 25.3149 15.5022 25.3833 15.5682C25.5335 15.7102 25.6827 15.8542 25.8327 15.9982C25.8757 16.0405 25.9196 16.0827 25.9634 16.1252C26.1554 16.3112 26.3467 16.4991 26.5392 16.6888C26.5911 16.7409 26.6432 16.7931 26.6959 16.8455C26.8379 16.9869 26.9801 17.1291 27.1228 17.2731C27.1888 17.3394 27.2551 17.4067 27.3208 17.474C27.4549 17.6099 27.589 17.7469 27.7225 17.8846C27.7849 17.9493 27.8472 18.013 27.9099 18.0774C28.0771 18.2506 28.2451 18.426 28.4124 18.6026C28.4377 18.6292 28.4627 18.6545 28.4875 18.6811C28.5021 18.6962 28.5167 18.7113 28.5313 18.7275C28.6176 18.6573 28.7045 18.5882 28.7908 18.5194C28.878 18.4508 28.9646 18.3816 29.0525 18.3133C29.1574 18.2298 29.2623 18.1484 29.3679 18.0664C29.4543 17.9999 29.5404 17.9326 29.627 17.8661C29.747 17.7743 29.866 17.6838 29.986 17.5932C30.1089 17.5001 30.2317 17.4082 30.3541 17.3167C30.4741 17.2272 30.5935 17.1385 30.713 17.0511C30.8061 16.9822 30.8983 16.9155 30.9909 16.8481C31.0851 16.7801 31.1787 16.7125 31.2729 16.6449C31.3686 16.5758 31.4647 16.5072 31.5612 16.4393C31.6515 16.3752 31.7409 16.3133 31.8306 16.2502C31.9277 16.1824 32.0253 16.114 32.1221 16.0473C32.2131 15.9841 32.3047 15.9225 32.3957 15.8607C32.5715 15.741 32.7472 15.6238 32.9209 15.5075C33.0021 15.4537 33.083 15.3995 33.1641 15.3473C33.2677 15.2782 33.3717 15.2116 33.4755 15.1443C33.5533 15.0947 33.6295 15.0457 33.7059 14.9964C33.8121 14.928 33.917 14.8618 34.0232 14.7958C34.0944 14.7504 34.1653 14.7071 34.2363 14.663C34.3466 14.5947 34.457 14.526 34.5663 14.4595C34.5851 14.4483 34.6036 14.4378 34.6216 14.4266C34.878 14.2711 35.1322 14.1206 35.3858 13.9735C35.4424 13.9404 35.4987 13.907 35.5558 13.8741C35.6693 13.8091 35.7835 13.7447 35.897 13.6803C35.9563 13.6469 36.016 13.6147 36.075 13.5816C36.19 13.5172 36.3053 13.4541 36.4196 13.3915C36.4681 13.3643 36.5166 13.3383 36.5656 13.3124C36.6003 13.2936 36.634 13.2751 36.668 13.2573C34.356 10.6697 31.9941 8.32345 29.6427 6.24579C29.5898 6.27474 29.5357 6.30448 29.4827 6.33501C29.3703 6.39762 29.2589 6.46051 29.1464 6.52573C29.0875 6.5599 29.0281 6.59431 28.9686 6.62926C28.7263 6.76962 28.4833 6.91337 28.2389 7.06155C28.2112 7.07903 28.1833 7.09523 28.1546 7.11271C28.0463 7.17845 27.9381 7.246 27.8293 7.31357C27.757 7.35844 27.6847 7.40252 27.6114 7.4487C27.5071 7.51444 27.4025 7.58098 27.2968 7.64828C27.2191 7.69759 27.1414 7.7477 27.0629 7.79727C26.9608 7.86458 26.8577 7.93083 26.7542 7.99788C26.6712 8.05292 26.5885 8.10795 26.5045 8.16404C26.3357 8.27648 26.1667 8.3897 25.9966 8.50527C25.9003 8.57023 25.8054 8.63468 25.7104 8.70068C25.6147 8.76694 25.5187 8.83346 25.423 8.90103C25.3319 8.96416 25.2411 9.02756 25.1501 9.09226C25.0546 9.16009 24.9588 9.2277 24.8633 9.29709C24.7681 9.36466 24.6734 9.433 24.5782 9.50187C24.4866 9.5684 24.395 9.63464 24.3027 9.70273C24.1832 9.79013 24.0632 9.87963 23.9427 9.96937C23.8206 10.0604 23.6979 10.1525 23.5743 10.2456C23.4556 10.3367 23.3361 10.4259 23.2164 10.5185C23.13 10.5837 23.0432 10.6521 22.9576 10.7189C22.852 10.8008 22.7471 10.883 22.6414 10.9654C22.5545 11.034 22.4682 11.1021 22.381 11.1713C22.2689 11.2594 22.1579 11.3494 22.0458 11.4397C21.9667 11.5028 21.8877 11.5657 21.8094 11.6302C21.6607 11.7502 21.5114 11.8731 21.3627 11.996C21.3951 12.0231 21.4291 12.0498 21.4622 12.0774Z" fill="white"/>
<path fill-rule="evenodd" clip-rule="evenodd" d="M0.42964 21.0369C0.53582 21.0964 0.641501 21.1566 0.748202 21.2174C0.81838 21.2573 0.887762 21.2986 0.957418 21.3387C1.15751 21.4556 1.35784 21.5737 1.55898 21.6948C1.62367 21.7342 1.68794 21.7725 1.7529 21.8117C1.85334 21.8732 1.95426 21.9361 2.05496 21.9992C2.13609 22.0488 2.21723 22.0986 2.29811 22.1492C2.39724 22.2111 2.49664 22.2745 2.59578 22.3376C2.68004 22.3921 2.76559 22.4464 2.85116 22.5014C2.94768 22.564 3.04373 22.6267 3.14078 22.6898C3.23626 22.7524 3.33277 22.8163 3.42826 22.88C3.57096 22.9747 3.71316 23.0707 3.85586 23.1669C3.9696 23.2444 4.08305 23.3211 4.19654 23.3991C4.28628 23.4612 4.37573 23.5244 4.46547 23.587C4.56304 23.6556 4.662 23.7239 4.75957 23.7941C4.8501 23.8575 4.94002 23.922 5.03054 23.9867C5.13281 24.0595 5.23509 24.133 5.33657 24.2076C5.4224 24.2692 5.50721 24.331 5.59226 24.3934C5.73052 24.4941 5.8685 24.5974 6.00651 24.7007C6.10173 24.7703 6.19515 24.8413 6.29012 24.9133C6.42369 25.0143 6.55781 25.1157 6.69112 25.2188C6.77173 25.2804 6.85178 25.3427 6.93213 25.4053C7.04431 25.4925 7.15656 25.5794 7.26822 25.6675C7.34988 25.7322 7.43226 25.7964 7.51392 25.8616C7.63236 25.9558 7.75082 26.0508 7.86978 26.1457C7.87369 26.1489 7.87763 26.1522 7.8818 26.1556C7.95537 26.0588 8.03042 25.962 8.10478 25.8647C8.1653 25.7857 8.22644 25.7064 8.28801 25.6278C8.40358 25.4765 8.51984 25.3284 8.63724 25.1784C8.69594 25.1038 8.75366 25.0297 8.81262 24.9551C8.96028 24.768 9.10894 24.5815 9.25816 24.3942C9.28529 24.361 9.31196 24.3269 9.33857 24.2937C9.51466 24.0743 9.69182 23.8567 9.87052 23.6386C9.92374 23.5739 9.97738 23.509 10.0311 23.444C10.16 23.287 10.2894 23.131 10.4196 22.9749C10.4833 22.8985 10.5464 22.8223 10.6109 22.7467C10.7398 22.593 10.8691 22.4407 10.999 22.288C11.0564 22.2189 11.1146 22.1511 11.1733 22.0833C11.3593 21.8652 11.5472 21.6476 11.7363 21.4313C11.9257 21.214 12.1157 20.999 12.3056 20.7851C12.3653 20.7186 12.4243 20.6523 12.4832 20.5858C12.6168 20.4363 12.7501 20.2887 12.8837 20.141C12.9502 20.0677 13.0169 19.9952 13.0834 19.9219C13.2199 19.7721 13.3556 19.6237 13.4926 19.4765C13.549 19.4152 13.6055 19.3534 13.6619 19.2923C13.8388 19.1027 14.0158 18.9143 14.1922 18.7275C14.1043 18.6571 14.0167 18.5867 13.9293 18.517C13.8448 18.4492 13.7595 18.3829 13.6752 18.3166C13.5664 18.2303 13.4586 18.1468 13.3503 18.0628C13.2669 17.9973 13.1827 17.9326 13.0989 17.8684C12.9735 17.7711 12.848 17.6765 12.723 17.582C12.6116 17.4978 12.4999 17.414 12.3882 17.3305C12.2615 17.2361 12.1346 17.1416 12.0086 17.0487C11.9176 16.9822 11.8279 16.9175 11.7384 16.8523C11.6413 16.7819 11.5445 16.7125 11.4472 16.6425C11.3533 16.5752 11.2594 16.5085 11.1653 16.4422C11.0724 16.3751 10.9795 16.3112 10.8863 16.246C10.7922 16.1795 10.6972 16.114 10.6035 16.0488C10.5044 15.9802 10.4058 15.9136 10.3067 15.8463C10.1423 15.7347 9.97796 15.6238 9.81386 15.515C9.72855 15.4582 9.64273 15.4013 9.55716 15.346C9.45489 15.2781 9.35312 15.2129 9.25164 15.1475C9.17259 15.0955 9.09352 15.0446 9.01369 14.9943C8.91012 14.928 8.80603 14.8621 8.70246 14.7971C8.62889 14.7504 8.55515 14.7055 8.48132 14.6598C8.37384 14.5933 8.26627 14.526 8.15879 14.4611C8.12826 14.4418 8.09829 14.4248 8.06829 14.406C7.82593 14.2592 7.58517 14.1167 7.34516 13.9779C7.28568 13.9422 7.22565 13.9072 7.16591 13.8738C7.05399 13.8091 6.94158 13.7457 6.82992 13.6821C6.76913 13.6474 6.70728 13.6132 6.64598 13.5793C6.53275 13.5161 6.41904 13.454 6.3053 13.392C6.25443 13.3643 6.20299 13.3372 6.15264 13.3095C6.12029 13.2923 6.08747 13.2751 6.05512 13.2573C5.81145 13.5302 5.56778 13.8049 5.32516 14.0835C3.39985 16.2898 1.62086 18.541 0 20.7971C0.0743514 20.8375 0.149265 20.8803 0.2244 20.9218C0.293012 20.9597 0.361289 20.9985 0.42964 21.0369Z" fill="white"/>
<path fill-rule="evenodd" clip-rule="evenodd" d="M27.6754 32.5273C27.6165 32.4519 27.5578 32.3773 27.4981 32.3016C27.3515 32.1154 27.2038 31.9296 27.0551 31.7441C27.0272 31.7097 27.0008 31.6752 26.9734 31.6408C26.7968 31.4219 26.6197 31.2047 26.4415 30.9871C26.388 30.9213 26.3333 30.8561 26.2803 30.7909C26.1514 30.6346 26.0219 30.4789 25.8925 30.3229C25.8286 30.2462 25.7642 30.1702 25.7014 30.0946C25.5725 29.9409 25.4423 29.7883 25.3126 29.6349C25.2544 29.5671 25.1966 29.4987 25.1389 29.4309C24.9524 29.2131 24.7642 28.9952 24.5756 28.7784C24.3859 28.5609 24.1958 28.3467 24.0058 28.1333C23.9469 28.0667 23.8879 28.0008 23.8287 27.935C23.6954 27.785 23.5611 27.6363 23.4265 27.4878C23.3608 27.4145 23.2947 27.3428 23.2297 27.2703C23.0925 27.1203 22.9548 26.9708 22.8176 26.8223C22.7613 26.7613 22.7059 26.701 22.6496 26.6407C22.4589 26.4357 22.2677 26.2312 22.0764 26.0292C22.0501 26.0019 22.024 25.975 21.9974 25.9468C21.8322 25.772 21.6663 25.5993 21.4993 25.4264C21.4537 25.3791 21.4078 25.3319 21.3613 25.2842C21.3154 25.3327 21.2684 25.3802 21.2217 25.4276C21.0592 25.5977 20.8951 25.7684 20.7318 25.9403C20.7033 25.9703 20.6747 26.0003 20.6455 26.0306C20.455 26.2322 20.2643 26.4352 20.0739 26.6405C20.0172 26.701 19.9604 26.7634 19.903 26.8249C19.7665 26.9721 19.6304 27.1208 19.4942 27.2703C19.4279 27.3428 19.3614 27.4153 19.2962 27.4881C19.1616 27.6363 19.028 27.785 18.8939 27.935C18.8347 28.0008 18.7757 28.0667 18.7173 28.1333C18.5268 28.3467 18.3366 28.5611 18.1475 28.7784C17.9584 28.9952 17.7711 29.2131 17.5838 29.4309C17.5264 29.4985 17.469 29.5673 17.4113 29.6341C17.2804 29.7883 17.1501 29.9415 17.0207 30.0959C16.9576 30.1705 16.895 30.2459 16.8329 30.32C16.7006 30.4778 16.57 30.6362 16.4395 30.7945C16.3874 30.8579 16.3349 30.9216 16.2822 30.9858C16.103 31.2046 15.9251 31.423 15.7492 31.6426C15.7239 31.6732 15.7002 31.7048 15.6746 31.7353C15.5233 31.9247 15.3725 32.114 15.2233 32.3042C15.1648 32.3773 15.1082 32.4501 15.0505 32.5231C15.0203 32.5623 14.9901 32.6024 14.959 32.6408C15.0021 32.6851 15.0449 32.7292 15.0871 32.7736C15.2546 32.947 15.4218 33.1218 15.5898 33.2974C15.6144 33.324 15.6394 33.3499 15.6647 33.3775C15.8562 33.5792 16.048 33.7834 16.2392 33.9888C16.2942 34.0482 16.35 34.1093 16.4051 34.1695C16.5434 34.3185 16.6816 34.469 16.8188 34.6191C16.8848 34.6905 16.9491 34.7631 17.0148 34.8345C17.1497 34.9835 17.2837 35.1338 17.4184 35.2835C17.4776 35.3493 17.536 35.4145 17.5945 35.4808C17.7852 35.6944 17.9751 35.9099 18.1642 36.1267C18.3534 36.3432 18.5406 36.5603 18.7272 36.7781C18.7856 36.8467 18.8441 36.9151 18.9017 36.9842C19.0322 37.1368 19.1616 37.2894 19.2902 37.4431C19.3533 37.5177 19.4173 37.5934 19.4801 37.6701C19.6111 37.8258 19.7412 37.9829 19.8698 38.1405C19.9238 38.2044 19.9768 38.2698 20.03 38.3343C20.2085 38.5524 20.3859 38.7708 20.562 38.9896C20.5891 39.023 20.615 39.0564 20.6416 39.0896C20.7918 39.2764 20.9402 39.4634 21.0876 39.6507C21.1461 39.7248 21.2053 39.8002 21.2637 39.8746C21.2963 39.9158 21.3287 39.9572 21.3613 40C21.394 39.9572 21.4271 39.9157 21.4602 39.8737C21.5189 39.7991 21.5763 39.7248 21.635 39.6507C21.7837 39.4626 21.9324 39.2756 22.0832 39.0877C22.109 39.0549 22.1348 39.0228 22.1609 38.9899C22.336 38.7708 22.5146 38.5526 22.6926 38.3343C22.7458 38.2696 22.7995 38.2044 22.8528 38.1405C22.9822 37.9829 23.1124 37.8258 23.2431 37.6701C23.3065 37.5934 23.3691 37.5177 23.433 37.4431C23.5619 37.2894 23.6908 37.1368 23.8207 36.9842C23.8794 36.9151 23.937 36.847 23.996 36.7781C24.1822 36.5603 24.3701 36.3435 24.5592 36.1267C24.7483 35.9099 24.9383 35.6944 25.1282 35.4808C25.1867 35.4143 25.2459 35.3493 25.304 35.2835C25.4392 35.1333 25.573 34.9838 25.7079 34.8345C25.7736 34.7628 25.8386 34.6905 25.9044 34.6191C26.0413 34.4685 26.1793 34.3185 26.3176 34.1695C26.3726 34.1085 26.4284 34.0482 26.484 33.9888C26.6755 33.7832 26.8665 33.5792 27.0585 33.3775C27.0832 33.3496 27.1083 33.324 27.1334 33.2974C27.3009 33.1216 27.4681 32.947 27.6356 32.7736C27.6786 32.7292 27.7211 32.6851 27.7637 32.6408C27.7347 32.6035 27.7052 32.5651 27.6754 32.5273Z" fill="white"/>
<path fill-rule="evenodd" clip-rule="evenodd" d="M6.30626 13.392C6.41974 13.4538 6.53325 13.5164 6.64673 13.5793C6.70804 13.6132 6.76963 13.6479 6.83067 13.6821C6.94233 13.745 7.05448 13.8094 7.16666 13.8738C7.22666 13.9072 7.28644 13.9425 7.34592 13.9779C7.58593 14.1165 7.82669 14.2592 8.06905 14.406C8.09905 14.4248 8.12876 14.442 8.15954 14.4611C8.26703 14.526 8.3746 14.5933 8.48208 14.6598C8.55591 14.7055 8.62939 14.7509 8.70322 14.7971C8.80679 14.8621 8.91087 14.9286 9.01444 14.9943C9.09427 15.0447 9.17335 15.0958 9.2524 15.1475C9.35414 15.213 9.45565 15.2784 9.55791 15.346C9.64348 15.4013 9.72905 15.4584 9.81462 15.515C9.97871 15.6241 10.1428 15.7347 10.3074 15.8463C10.4066 15.9131 10.5052 15.9804 10.6043 16.0488C10.698 16.114 10.7929 16.1795 10.8871 16.246C10.9802 16.3112 11.0731 16.3754 11.166 16.4422C11.2604 16.5085 11.3541 16.5752 11.448 16.6425C11.5453 16.7119 11.6421 16.7819 11.7391 16.8523C11.8286 16.9173 11.9183 16.9825 12.0094 17.0488C12.1354 17.1411 12.2622 17.2363 12.389 17.3305C12.5009 17.414 12.6124 17.4978 12.7238 17.582C12.8487 17.6765 12.974 17.7711 13.0997 17.8684C13.1834 17.9324 13.2676 17.9979 13.3511 18.0628C13.4596 18.1468 13.5672 18.2308 13.676 18.3166C13.7605 18.3826 13.8452 18.4492 13.93 18.517C14.018 18.5864 14.1056 18.6563 14.193 18.7275C14.2073 18.7119 14.2212 18.6976 14.235 18.6824C14.2637 18.6529 14.2922 18.6232 14.3208 18.5932C14.4849 18.4208 14.6479 18.2501 14.812 18.0803C14.8765 18.0125 14.9415 17.9464 15.0067 17.8797C15.1376 17.7445 15.2676 17.6112 15.3983 17.4787C15.4677 17.4083 15.5357 17.3389 15.6049 17.2695C15.7437 17.1299 15.882 16.9911 16.0197 16.8533C16.0764 16.7975 16.1322 16.7422 16.188 16.6861C16.3771 16.498 16.5678 16.3123 16.7583 16.1271C16.8068 16.0798 16.8545 16.0342 16.9036 15.988C17.0479 15.8476 17.1923 15.7089 17.3366 15.5706C17.4091 15.5025 17.4802 15.4354 17.5524 15.3666C17.6766 15.2494 17.8012 15.1315 17.9267 15.0154C18 14.9471 18.0729 14.8795 18.1459 14.8117C18.2829 14.6852 18.4195 14.5589 18.557 14.4342C18.6134 14.382 18.6705 14.3298 18.7276 14.2774C18.9136 14.1078 19.1007 13.9406 19.2875 13.7747C19.3525 13.716 19.4182 13.6591 19.4832 13.6012C19.611 13.488 19.7383 13.3761 19.8656 13.2652C19.9449 13.1961 20.0237 13.1285 20.1014 13.0612C20.2183 12.9592 20.336 12.859 20.4521 12.7596C20.5311 12.6923 20.6094 12.625 20.6884 12.5587C20.8199 12.4463 20.9522 12.3364 21.0834 12.2269C21.1447 12.176 21.2044 12.1254 21.2647 12.075C21.2976 12.0481 21.33 12.0221 21.3618 11.996C21.2118 11.8718 21.0618 11.7479 20.9115 11.6263C20.8374 11.5661 20.7635 11.5071 20.6884 11.4474C20.5723 11.3529 20.4554 11.2595 20.3386 11.1669C20.2556 11.1014 20.1724 11.0357 20.0889 10.9697C19.9785 10.8833 19.869 10.7978 19.7594 10.7127C19.6773 10.6483 19.5948 10.5844 19.5124 10.5215C19.3838 10.4224 19.2554 10.3253 19.1268 10.228C19.0211 10.1482 18.9163 10.0696 18.8114 9.99138C18.6799 9.89302 18.5493 9.79547 18.4175 9.69921C18.3301 9.63451 18.2424 9.57163 18.1545 9.50798C18.0551 9.43598 17.9555 9.36372 17.8566 9.2925C17.7643 9.22675 17.6719 9.16126 17.5795 9.09526C17.484 9.02743 17.3891 8.96117 17.2936 8.89491C17.2018 8.83021 17.1094 8.76601 17.0173 8.70235C16.9103 8.62826 16.8034 8.55602 16.6972 8.48402C16.5438 8.38019 16.3909 8.27737 16.2388 8.17641C16.1481 8.11536 16.057 8.0551 15.9668 7.99588C15.8671 7.93066 15.7677 7.86621 15.6681 7.80282C15.5864 7.74934 15.5047 7.6972 15.4223 7.64476C15.3216 7.57928 15.2182 7.51536 15.1167 7.45119C15.0406 7.4024 14.9634 7.35596 14.8864 7.30796C14.7816 7.243 14.6767 7.17774 14.5729 7.11382C14.5259 7.08617 14.4795 7.05829 14.433 7.02985C14.21 6.89576 13.9879 6.76425 13.7667 6.63537C13.7033 6.59754 13.6389 6.56025 13.575 6.52373C13.4657 6.46034 13.3558 6.39875 13.2471 6.3377C13.192 6.30639 13.1367 6.27589 13.0817 6.24563C10.7303 8.32329 8.3686 10.6697 6.05587 13.2573C6.08848 13.2746 6.12079 13.2926 6.1534 13.3095C6.20375 13.3367 6.25513 13.3646 6.30626 13.392Z" fill="white"/>
</svg>
